<?xml version="1.0" standalone="no"?>
<!DOCTYPE svg PUBLIC "-//W3C//DTD SVG 20010904//EN"
 "http://www.w3.org/TR/2001/REC-SVG-20010904/DTD/svg10.dtd">
<svg version="1.0" xmlns="http://www.w3.org/2000/svg"
 width="646.000000pt" height="646.000000pt" viewBox="0 0 646.000000 646.000000"
 preserveAspectRatio="xMidYMid meet">
<metadata>
Created by potrace 1.14, written by Peter Selinger 2001-2017
</metadata>
<g transform="translate(0.000000,646.000000) scale(0.100000,-0.100000)"
fill="#000000" stroke="none">
<path d="M3095 6446 c-207 -68 -354 -250 -372 -461 -17 -210 99 -416 289 -509
41 -21 94 -40 116 -43 l42 -6 0 -238 0 -239 -112 0 c-216 0 -312 -34 -416
-144 -71 -76 -103 -149 -110 -248 l-4 -68 -152 0 c-162 0 -306 -17 -438 -50
-548 -140 -1002 -529 -1214 -1043 -22 -52 -38 -80 -46 -78 -32 12 -165 3 -201
-13 -57 -25 -127 -94 -153 -151 l-24 -50 1 -475 c0 -371 3 -483 13 -513 18
-50 59 -102 109 -138 37 -27 59 -35 140 -53 27 -6 27 -7 27 -95 0 -246 133
-504 342 -661 127 -96 244 -147 390 -170 53 -8 580 -10 1953 -8 l1880 3 73 23
c249 77 450 248 558 475 52 111 74 199 81 325 l6 112 32 0 c46 0 149 55 183
98 71 90 67 54 67 597 l0 490 -27 51 c-61 115 -197 182 -317 155 l-43 -9 -16
41 c-35 93 -146 298 -210 387 -123 173 -305 347 -482 462 -295 192 -615 287
-962 288 l-138 0 0 48 c0 106 -48 209 -135 291 -98 93 -190 121 -395 121
l-115 0 2 237 2 237 57 13 c80 18 169 69 235 133 261 257 185 689 -150 849
-73 35 -80 36 -201 38 -83 2 -139 -2 -165 -11z m-853 -2627 c133 -28 287 -136
357 -253 64 -107 84 -178 85 -301 1 -132 -22 -217 -83 -312 -205 -317 -632
-364 -896 -99 -174 176 -217 447 -105 665 74 143 211 255 363 296 63 17 207
19 279 4z m2213 -4 c266 -68 453 -326 432 -597 -32 -412 -462 -657 -832 -474
-349 172 -425 643 -149 920 70 69 167 127 255 150 72 19 220 20 294 1z"/>
<path d="M2019 3606 c-274 -74 -357 -417 -148 -610 81 -75 147 -99 259 -94 73
3 94 9 148 38 71 38 129 98 163 168 33 70 38 198 10 274 -66 175 -254 272
-432 224z m10 -172 c65 -26 94 -93 68 -155 -21 -50 -50 -71 -106 -77 -45 -4
-52 -1 -86 30 -29 27 -38 43 -42 78 -6 57 26 109 77 127 45 15 43 16 89 -3z"/>
<path d="M4219 3606 c-103 -27 -190 -103 -237 -205 -22 -46 -26 -71 -27 -141
0 -75 4 -93 31 -150 37 -78 99 -141 174 -178 49 -24 66 -27 155 -27 90 0 105
3 153 28 75 40 124 87 162 159 28 53 35 76 38 144 3 59 0 96 -12 132 -60 180
-256 287 -437 238z m10 -172 c127 -50 86 -234 -52 -234 -28 0 -46 8 -73 33
-67 61 -52 167 29 202 41 18 49 18 96 -1z"/>
</g>
</svg>
